# xmcd
#
# Track frame offsets:
#	150
#	26319
#	41929
#	66609
#	95191
#	128390
#	160203
#
# Disc length: 2556 seconds
# Revision: 0
# Processed by: cddbd v1.5.2PL0 Copyright (c) Steve Scherf et al.
# Submitted via: dBpowerAMP V12.0
#
DISCID=5d09fa07
DTITLE=Kyla Brox - Kyla Brox - Live...At Last - Band
DYEAR=2014
DGENRE=Blues
TTITLE0=Ball and Chain
TTITLE1=Cramp Your Style
TTITLE2=Shaken and Stirred
TTITLE3=Grey Sky Blue
TTITLE4=What's Left On The Table
TTITLE5=At Last
TTITLE6=Wang Dang Doodle
EXTD=
EXTT0=
EXTT1=
EXTT2=
EXTT3=
EXTT4=
EXTT5=
EXTT6=
PLAYORDER=
